<?xml version="1.0" standalone="no"?>
<!DOCTYPE svg PUBLIC "-//W3C//DTD SVG 20010904//EN"
 "http://www.w3.org/TR/2001/REC-SVG-20010904/DTD/svg10.dtd">
<svg version="1.0" xmlns="http://www.w3.org/2000/svg"
 width="100%" height="100%" viewBox="0 0 800.000000 400.000000"
 preserveAspectRatio="xMidYMid meet">

<g transform="translate(0.000000,400.000000) scale(0.100000,-0.100000)"
fill="#000000" stroke="none">
<path d="M3740 3180 c0 -13 11 -13 30 0 12 8 11 10 -7 10 -13 0 -23 -4 -23
-10z"/>
<path d="M3947 3182 c-10 -4 -19 -12 -19 -17 0 -6 -5 -8 -11 -5 -17 7 -107 5
-139 -3 -15 -4 -33 -13 -40 -20 -7 -6 -30 -25 -50 -40 -21 -15 -50 -49 -65
-75 -15 -26 -31 -50 -36 -53 -4 -3 -7 -10 -5 -15 1 -5 -3 -18 -9 -29 -30 -55
-55 -210 -35 -229 10 -11 10 -60 -1 -67 -5 -4 -5 -15 2 -27 8 -15 8 -23 0 -28
-8 -5 -9 -38 -5 -113 4 -58 6 -119 4 -136 -5 -63 0 -158 9 -164 6 -3 13 -35
17 -70 4 -36 14 -77 21 -91 8 -16 10 -31 5 -36 -5 -5 -5 -29 0 -53 4 -25 6
-50 3 -57 -2 -6 2 -14 10 -17 8 -3 17 -19 20 -36 7 -33 47 -80 88 -102 15 -8
41 -22 59 -32 70 -40 220 -54 220 -21 0 11 5 11 25 2 34 -15 138 8 175 39 15
12 33 23 38 23 19 0 105 125 99 144 -2 6 3 16 10 21 31 23 68 215 44 229 -10
7 -9 112 2 122 10 10 8 119 -3 174 -5 27 -5 65 1 94 7 40 5 64 -11 123 -11 40
-20 89 -20 108 0 20 -6 50 -13 68 -8 18 -13 62 -11 100 1 45 -3 72 -12 81 -7
8 -16 24 -19 37 -18 71 -160 160 -275 172 -30 3 -63 3 -73 -1z m44 -302 c44
-24 65 -133 58 -305 -2 -49 -2 -124 -1 -165 5 -178 0 -404 -9 -428 -23 -60
-78 -81 -126 -47 -40 28 -57 196 -40 405 6 61 4 92 -5 109 -15 29 -6 303 12
370 16 60 63 86 111 61z m-221 -136 c0 -24 -4 -34 -12 -31 -7 2 -11 11 -9 18
2 8 4 22 5 32 1 33 16 16 16 -19z m-53 -131 c3 -39 1 -45 -12 -39 -9 3 -21 6
-26 6 -5 0 -9 5 -9 10 0 6 7 10 16 10 13 0 15 7 11 29 -6 28 1 47 12 36 3 -3
7 -26 8 -52z m603 43 c0 -3 -4 -8 -10 -11 -5 -3 -10 -1 -10 4 0 6 5 11 10 11
6 0 10 -2 10 -4z m-230 -36 c0 -5 -4 -10 -10 -10 -5 0 -10 5 -10 10 0 6 5 10
10 10 6 0 10 -4 10 -10z m30 -30 c0 -5 -4 -10 -10 -10 -5 0 -10 5 -10 10 0 6
5 10 10 10 6 0 10 -4 10 -10z m-517 -67 c-7 -2 -21 -2 -30 0 -10 3 -4 5 12 5
17 0 24 -2 18 -5z m-5 -50 c-10 -2 -26 -2 -35 0 -10 3 -2 5 17 5 19 0 27 -2
18 -5z m752 -264 c0 -5 -7 -9 -15 -9 -15 0 -20 12 -9 23 8 8 24 -1 24 -14z
m-530 1 c0 -5 -7 -10 -16 -10 -8 0 -12 5 -9 10 3 6 10 10 16 10 5 0 9 -4 9
-10z m25 -30 c3 -5 1 -10 -4 -10 -6 0 -11 5 -11 10 0 6 2 10 4 10 3 0 8 -4 11
-10z m319 -135 c-4 -17 -10 -23 -16 -17 -6 6 -6 18 2 32 15 28 23 20 14 -15z"/>
<path d="M2920 3003 c-25 -49 -51 -92 -57 -96 -18 -11 -16 -25 5 -30 14 -4 14
-6 -5 -12 -13 -4 -23 -12 -23 -17 0 -14 -27 -38 -34 -31 -3 4 -6 2 -6 -4 0 -6
-16 -34 -35 -62 -19 -28 -35 -55 -35 -60 0 -4 -7 -14 -15 -21 -8 -7 -15 -21
-15 -32 0 -10 -7 -21 -15 -24 -8 -4 -15 -17 -15 -30 0 -13 -5 -24 -10 -24 -15
0 -57 -50 -68 -81 -7 -17 -5 -38 4 -65 17 -49 17 -54 0 -54 -10 0 -12 -20 -8
-97 2 -54 8 -108 13 -120 10 -26 29 -31 29 -8 0 8 5 15 10 15 6 0 10 -6 10
-14 0 -12 13 -14 63 -11 130 8 212 17 221 26 13 12 53 11 61 -1 3 -5 15 -10
25 -10 26 0 30 -19 28 -148 -1 -70 2 -116 8 -120 6 -4 11 -14 11 -22 0 -8 3
-25 7 -37 5 -17 2 -23 -15 -28 -20 -7 -21 -12 -16 -67 7 -79 5 -78 66 -43 14
7 28 12 33 9 12 -8 -2 -33 -23 -39 -10 -4 -19 -11 -19 -17 0 -7 16 -8 48 -3
26 4 53 7 60 7 51 -4 103 -3 112 3 5 3 10 15 10 26 0 18 -4 20 -32 14 l-33 -6
30 19 c28 17 32 26 43 105 13 87 9 135 -12 150 -8 5 -8 9 0 15 15 10 18 99 3
107 -8 6 -7 10 2 17 10 7 7 8 -11 4 -39 -9 -66 -14 -52 -9 6 3 12 8 12 13 0 5
-6 11 -12 14 -7 3 5 3 26 -1 42 -6 40 -9 20 42 -4 10 0 15 10 15 24 0 30 42
22 169 -4 64 -7 128 -6 144 0 22 -4 27 -25 27 -19 0 -25 -5 -25 -21 0 -12 -4
-17 -11 -13 -6 3 -9 19 -5 35 4 20 1 29 -7 29 -19 0 -47 38 -41 55 4 8 1 15
-6 15 -6 0 -18 7 -26 15 -21 21 -33 19 -43 -7 -10 -25 -37 -52 -62 -61 -18 -6
-30 -59 -18 -78 7 -12 -7 -48 -23 -60 -5 -3 -43 -4 -85 -3 -105 3 -103 3 -103
12 0 5 14 7 30 4 23 -3 29 -1 25 9 -3 8 6 26 20 41 14 15 25 31 25 37 0 5 14
24 30 42 17 17 29 37 26 44 -2 6 5 17 15 24 11 6 18 15 15 19 -2 4 13 32 35
62 126 176 158 228 173 277 7 21 5 22 -23 17 -24 -5 -31 -3 -31 9 0 8 -5 17
-12 19 -6 2 -8 10 -4 17 6 9 11 8 22 -6 13 -17 13 -17 14 4 0 16 5 20 20 16
16 -4 18 -8 9 -19 -8 -9 -8 -14 -1 -14 17 0 24 19 18 44 -6 23 -8 24 -153 25
l-148 1 -45 -87z m-12 -538 c-6 -14 -15 -25 -20 -25 -11 0 -10 7 4 30 18 29
30 25 16 -5z m-68 -44 c0 -4 -11 -6 -25 -3 -14 2 -25 6 -25 8 0 2 11 4 25 4
14 0 25 -4 25 -9z m-65 -11 c-3 -5 -11 -10 -16 -10 -6 0 -7 5 -4 10 3 6 11 10
16 10 6 0 7 -4 4 -10z m230 -80 c3 -5 -1 -10 -9 -10 -9 0 -16 5 -16 10 0 6 4
10 9 10 6 0 13 -4 16 -10z m-64 -153 c-13 -13 -15 1 -4 30 7 17 8 17 11 -1 2
-10 -1 -23 -7 -29z m274 -137 c3 -5 1 -10 -4 -10 -6 0 -11 5 -11 10 0 6 2 10
4 10 3 0 8 -4 11 -10z m-80 -338 c-6 -7 -34 11 -29 19 3 5 11 3 19 -4 7 -6 12
-13 10 -15z m125 -36 c0 -7 -9 -16 -20 -19 -22 -6 -29 18 -7 26 21 9 27 7 27
-7z m-60 -6 c0 -5 -4 -10 -9 -10 -6 0 -13 5 -16 10 -3 6 1 10 9 10 9 0 16 -4
16 -10z"/>
<path d="M3280 3074 c0 -8 5 -12 10 -9 6 3 10 10 10 16 0 5 -4 9 -10 9 -5 0
-10 -7 -10 -16z"/>
<path d="M4929 3003 c-24 -48 -50 -92 -56 -96 -18 -11 -16 -25 5 -30 14 -4 14
-6 -5 -12 -13 -4 -23 -13 -23 -20 0 -8 -9 -17 -20 -20 -11 -3 -20 -10 -20 -15
0 -4 -15 -30 -34 -57 -43 -63 -96 -162 -96 -179 0 -8 -6 -14 -12 -14 -7 -1
-26 -17 -41 -38 -29 -38 -32 -71 -11 -141 6 -20 4 -23 -9 -18 -13 5 -15 -7
-11 -99 4 -102 14 -144 34 -144 6 0 10 7 10 15 0 8 5 15 10 15 6 0 10 -6 10
-14 0 -16 23 -16 198 -1 80 7 82 8 82 34 0 14 5 33 11 41 8 11 9 7 5 -17 -5
-30 -3 -33 19 -33 14 0 25 -4 25 -9 0 -5 13 -11 30 -14 l30 -6 -2 -127 c-1
-77 2 -128 9 -132 5 -4 10 -14 10 -22 0 -8 3 -25 7 -37 5 -16 2 -23 -14 -28
-21 -7 -26 -42 -14 -104 7 -32 30 -42 40 -16 4 8 15 15 25 15 11 0 19 7 20 18
0 14 2 14 8 -3 11 -28 4 -42 -25 -49 -13 -4 -24 -10 -24 -15 0 -9 220 -4 229
5 3 2 6 14 8 25 3 18 -1 20 -29 14 l-33 -6 31 19 c29 19 33 26 40 94 10 84 7
150 -8 159 -6 4 -7 13 -3 20 14 22 15 93 2 101 -9 6 -8 11 3 19 12 8 10 9 -10
5 -39 -9 -66 -14 -52 -9 6 3 12 8 12 13 0 5 -6 11 -12 14 -7 3 5 3 26 -1 42
-6 40 -9 20 42 -4 9 -1 15 9 15 8 0 18 7 21 16 9 23 7 202 -2 207 -4 3 -6 30
-5 61 1 53 0 56 -23 56 -18 0 -24 -5 -24 -21 0 -12 -4 -17 -11 -13 -6 3 -9 19
-5 35 4 20 2 29 -8 29 -20 0 -47 35 -40 54 4 10 1 16 -7 16 -7 0 -20 7 -30 16
-17 15 -45 11 -35 -5 6 -10 -42 -56 -66 -64 -10 -4 -18 -17 -19 -29 -1 -67 -7
-101 -19 -108 -7 -4 -47 -6 -89 -4 -42 2 -82 3 -88 3 -7 1 -13 5 -13 10 0 4
11 6 25 3 17 -3 25 0 25 10 0 8 11 27 25 42 14 15 25 32 25 39 0 7 9 18 20 25
11 7 20 19 20 27 0 8 5 15 11 15 6 0 9 6 6 14 -3 8 1 17 8 20 8 3 21 22 30 42
8 21 30 56 49 78 33 41 112 161 135 204 7 12 9 27 6 32 -3 6 -1 10 5 10 6 0 9
4 6 8 -3 5 -20 7 -38 4 -18 -2 -30 -1 -26 3 4 5 3 14 -4 22 -8 10 -8 17 0 25
9 9 12 8 12 -5 0 -9 5 -17 10 -17 6 0 10 7 10 15 0 8 7 15 16 15 10 0 14 -6
10 -15 -3 -8 -1 -15 4 -15 15 0 22 20 16 44 -5 22 -8 23 -155 25 l-148 2 -44
-88z m-122 -495 c-3 -7 -5 -2 -5 12 0 14 2 19 5 13 2 -7 2 -19 0 -25z m110
-43 c-7 -14 -18 -25 -26 -25 -11 0 -11 3 0 18 12 15 30 31 36 32 0 0 -4 -11
-10 -25z m-67 -45 c0 -13 -11 -13 -30 0 -12 8 -11 10 8 10 12 0 22 -4 22 -10z
m-70 -10 c0 -5 -5 -10 -11 -10 -5 0 -7 5 -4 10 3 6 8 10 11 10 2 0 4 -4 4 -10z
m229 -89 c-15 -5 -22 6 -14 19 6 9 10 9 16 -1 5 -8 4 -15 -2 -18z m121 -601
c0 -5 -8 -10 -17 -10 -15 0 -16 2 -3 10 19 12 20 12 20 0z m140 -54 c0 -7 -9
-16 -20 -19 -13 -3 -20 0 -20 8 0 8 8 16 18 18 9 3 18 5 20 6 1 0 2 -5 2 -13z
m-60 -6 c0 -5 -4 -10 -9 -10 -6 0 -13 5 -16 10 -3 6 1 10 9 10 9 0 16 -4 16
-10z"/>
<path d="M5290 3074 c0 -8 5 -12 10 -9 6 3 10 10 10 16 0 5 -4 9 -10 9 -5 0
-10 -7 -10 -16z"/>
<path d="M2285 1488 c4 -13 6 -32 5 -43 -1 -11 -4 -122 -6 -246 l-5 -227 31
-4 c16 -3 42 -3 58 -1 l27 5 -2 146 -2 147 44 -90 c58 -117 76 -144 92 -138 8
3 13 -2 14 -13 4 -68 -1 -64 64 -64 l45 0 0 270 0 270 -65 0 -65 0 0 -162 -1
-163 -19 35 c-11 19 -19 44 -20 56 0 32 -55 137 -79 151 -13 8 -18 19 -14 29
8 22 -44 63 -81 64 -25 0 -27 -3 -21 -22z m333 -504 c-10 -10 -28 6 -28 24 0
15 1 15 17 -1 9 -9 14 -19 11 -23z"/>
<path d="M2825 1503 c-32 -8 -74 -54 -85 -92 -5 -20 -10 -91 -10 -157 0 -113
1 -122 20 -127 12 -3 20 -14 20 -27 0 -16 -4 -20 -15 -16 -9 3 -15 0 -15 -9 0
-8 5 -15 10 -15 6 0 10 -9 10 -19 0 -11 15 -30 33 -43 26 -18 48 -24 113 -26
80 -4 81 -4 116 30 41 39 58 99 58 210 0 61 -2 69 -15 58 -12 -10 -15 -10 -15
4 0 9 6 16 14 16 20 0 15 49 -6 56 -11 3 -18 15 -18 31 0 21 2 24 15 13 22
-19 20 5 -6 46 -32 52 -76 74 -145 73 -33 -1 -68 -3 -79 -6z m106 -124 c12
-24 18 -170 10 -245 -5 -41 -10 -49 -33 -55 -24 -6 -28 -4 -37 24 -12 38 -15
182 -5 250 6 41 10 47 30 47 14 0 28 -9 35 -21z m-184 -196 c-3 -10 -5 -4 -5
12 0 17 2 24 5 18 2 -7 2 -21 0 -30z"/>
<path d="M3720 1238 l0 -273 60 3 60 4 0 114 0 114 43 1 c113 4 102 -2 102 54
l0 50 -59 2 c-70 3 -86 15 -79 61 l5 32 73 0 c78 0 85 5 85 55 0 52 -6 55
-100 55 -62 0 -90 -4 -93 -12 -4 -10 -7 -10 -18 0 -7 6 -28 12 -46 12 l-33 0
0 -272z m69 -204 c38 -8 36 -26 -2 -30 -27 -3 -37 10 -14 19 6 3 2 6 -11 6
-13 1 -20 -3 -17 -9 3 -5 1 -10 -4 -10 -6 0 -11 7 -11 15 0 16 12 18 59 9z"/>
<path d="M4195 1497 c-45 -21 -64 -48 -75 -107 -12 -62 -12 -256 0 -200 l7 35
2 -37 c0 -21 -3 -38 -9 -38 -18 0 -10 -18 10 -23 12 -3 20 -14 20 -27 0 -16
-4 -20 -15 -16 -41 15 17 -77 62 -99 19 -9 59 -15 103 -15 68 0 74 2 105 33
22 22 36 48 44 85 13 62 15 204 2 184 -7 -11 -9 -11 -14 2 -4 10 -1 16 7 16
20 0 15 49 -6 56 -11 3 -18 15 -18 31 0 21 2 24 15 13 41 -34 1 53 -41 89 -23
20 -41 25 -98 28 -47 2 -81 -1 -101 -10z m120 -114 c11 -28 16 -193 8 -248 -8
-47 -10 -50 -38 -50 -26 0 -30 4 -38 40 -9 40 -2 248 8 266 10 16 52 10 60 -8z"/>
<path d="M4934 1489 c19 -62 20 -73 2 -66 -15 6 -16 -14 -16 -222 l0 -229 36
-4 c20 -2 48 -2 63 0 l26 4 -3 101 c-2 56 -2 120 0 142 l4 40 43 -89 c50 -105
71 -134 90 -128 10 3 12 0 8 -12 -4 -9 -3 -16 1 -16 4 0 8 -12 7 -27 0 -26 2
-27 50 -26 l50 0 3 272 2 271 -65 0 -65 0 -2 -162 -3 -163 -18 50 c-43 116
-73 177 -95 191 -15 10 -21 21 -17 33 7 22 -29 48 -77 58 -29 6 -31 5 -24 -18z
m334 -498 c3 -8 -1 -12 -9 -9 -7 2 -15 10 -17 17 -3 8 1 12 9 9 7 -2 15 -10
17 -17z"/>
<path d="M5364 1246 c1 -145 4 -267 7 -270 3 -3 22 -1 43 5 28 8 41 8 46 0 10
-17 112 -3 149 20 53 32 65 69 69 215 4 126 3 131 -17 137 -24 6 -29 37 -6 37
19 0 19 9 -1 49 -28 57 -65 71 -185 71 l-106 0 1 -264z m166 134 c16 -38 16
-251 0 -280 -10 -18 -18 -21 -46 -17 -19 3 -34 2 -34 -4 0 -20 -18 -7 -22 16
-5 25 5 34 17 15 14 -23 23 4 24 76 1 67 -1 76 -18 81 -13 3 -17 11 -13 26 3
12 10 25 15 29 6 3 10 21 9 39 -1 42 4 49 32 49 17 0 27 -9 36 -30z m130 -100
c-6 -11 -16 -20 -23 -19 -9 0 -9 2 1 6 6 2 12 11 12 19 0 8 5 14 10 14 7 0 7
-6 0 -20z m-200 -91 c0 -6 -4 -7 -10 -4 -5 3 -10 11 -10 16 0 6 5 7 10 4 6 -3
10 -11 10 -16z"/>
<path d="M3172 1492 l-34 -3 4 -52 4 -52 36 3 c31 2 36 -1 42 -24 4 -15 7 -74
6 -133 -3 -253 -3 -251 25 -251 16 0 25 6 25 15 0 8 9 15 20 15 13 0 20 7 20
19 0 10 7 24 15 31 9 7 15 28 14 49 -2 77 8 262 15 269 8 8 14 9 49 11 21 1
22 4 17 54 -4 45 -8 52 -25 48 -29 -6 -146 -5 -175 0 -14 3 -40 4 -58 1z"/>
<path d="M4515 1320 c0 -175 1 -179 22 -185 16 -4 20 -10 16 -26 -3 -12 -11
-18 -19 -15 -38 14 17 -79 58 -100 17 -9 63 -18 102 -21 68 -5 73 -4 105 23
56 47 61 70 61 299 l0 205 -65 0 -65 0 0 -184 c0 -197 -7 -236 -40 -236 -33 0
-40 39 -40 236 l0 184 -68 0 -68 0 1 -180z"/>
<path d="M4921 1454 c0 -11 3 -14 6 -6 3 7 2 16 -1 19 -3 4 -6 -2 -5 -13z"/>
</g>
</svg>
